<svg id="e8xvjnPBVrd1" xmlns="http://www.w3.org/2000/svg" xmlns:xlink="http://www.w3.org/1999/xlink" viewBox="0 0 1920 1080" shape-rendering="geometricPrecision" text-rendering="geometricPrecision"><polygon points="0,-192 166.276877,96 -166.276877,96 0,-192" transform="matrix(1.998832 0 0 1 90.073778 984)" fill="#fd841f" stroke="#000" stroke-width="5"/><polygon points="0,-370.741601 321.071645,185.3708 -321.071645,185.3708 0,-370.741601" transform="matrix(1.315698 0 0 0.719254 422.433321 946.671311)" fill="#e14d2a" stroke="#000" stroke-width="8"/><polygon points="0,-192 166.276878,96 -166.276878,96 0,-192" transform="matrix(1.816855 0 0 1.046549 823.433479 979.531296)" fill="#fd841f" stroke="#000" stroke-width="6"/><polygon points="0,-192 166.276878,96 -166.276878,96 0,-192" transform="matrix(2.568217 0 0 1.496467 1171.781709 936.339168)" fill="#e14d2a" stroke="#000" stroke-width="5"/><polygon points="0,-192 166.276878,96 -166.276878,96 0,-192" transform="matrix(2.863688 0 0 1.885121 1664.819277 901.943232)" fill="#fd841f" stroke="#000" stroke-width="5"/></svg>
